<?xml version="1.0" encoding="iso-8859-1"?>
<!-- Uploaded to: SVG Repo, www.svgrepo.com, Generator: SVG Repo Mixer Tools -->
<!DOCTYPE svg PUBLIC "-//W3C//DTD SVG 1.1//EN" "http://www.w3.org/Graphics/SVG/1.1/DTD/svg11.dtd">
<svg fill="#000000" version="1.1" id="Capa_1" xmlns="http://www.w3.org/2000/svg" xmlns:xlink="http://www.w3.org/1999/xlink" 
	 width="800px" height="800px" viewBox="0 0 34.39 34.391"
	 xml:space="preserve">
<g>
	<path d="M34.291,24.148c-0.02-0.018-1.832-1.714-1.781-4.437c-0.002-0.055-0.271-5.389-4.743-5.756
		c-0.47-0.536-2.732-2.822-6.731-2.09c-0.049,0.011-4.998,1.011-8.284-2.011C12.478,9.014,9.965,2.02,3.633,3.078L2.401,2.272
		L1.585,1.781c-0.1-0.06-0.225-0.057-0.322,0.008C1.166,1.855,1.116,1.97,1.133,2.086l0.354,2.188
		c-0.083,0.38-0.575,2.632-1.03,4.529C0.428,8.925,0.371,9.07,0.311,9.229c-0.271,0.693-0.72,1.854,0.487,2.609
		c0.037,0.023,0.912,0.582,1.664,0.236c0.476-0.216,0.771-0.717,0.881-1.489C3.5,9.481,3.818,9.373,4.187,9.246
		c0.098-0.034,0.203-0.07,0.307-0.123c0.062,0.997,0.271,2.723,0.967,4.251c0.002,0.229-0.021,1.098-0.438,1.55
		c-0.055,0.056-1.299,1.403,0.238,3.625l0.064,0.085c0.043,0.065,0.1,0.181,0.062,0.312c-0.043,0.147-0.278,0.526-1.528,0.854
		c-0.084,0.021-0.185,0.044-0.293,0.068c-0.712,0.161-1.787,0.404-2.242,1.203C1.086,21.491,1.058,22,1.246,22.573
		c0.043,0.149,1.092,3.638,3.174,4.157c0.272,0.237,1.106,0.911,1.768,0.911c0.025,0,0.05-0.001,0.075-0.003
		c0.104-0.012,0.245-0.081,0.334-0.238c0.179-0.322,0.065-0.879-0.386-1.803c-0.047-0.065-0.498-0.631-1.025-0.611
		c-0.127,0.008-0.289,0.052-0.446,0.19c-0.479-0.487-1.532-1.74-1.2-3.039c0.769-0.092,2.812-0.386,3.687-0.979
		c0.151,0.271,0.371,0.813,0.427,1.766c0.035,0.586,0.088,1.55,0.139,2.474c0.051,0.924,0.099,1.806,0.127,2.248
		c0.006,0.048,0.146,1.188-1.299,2.122c-0.094,0.074-0.55,0.467-0.41,0.907c0.142,0.447,0.756,0.537,1.224,0.564l1.032-0.003
		c0.062-0.009,0.607-0.1,0.795-0.55c0.113-0.272,0.061-0.588-0.155-0.94c0.091-0.155,0.21-0.401,0.384-0.792
		c0.02-0.055,0.475-1.371,0.137-4.979c0.318-0.276,1.104-1.054,1.317-2.138c0.95,0.585,3.414,1.584,7.742,0.009
		c0.006-0.002,0.012-0.004,0.02-0.007c0.383,0.462,0.836,0.903,1.328,1.287c-0.019,0.042-0.048,0.079-0.045,0.13
		c0.035,0.586,0.088,1.55,0.139,2.474s0.1,1.806,0.127,2.248c0.008,0.048,0.146,1.188-1.299,2.122
		c-0.094,0.074-0.55,0.467-0.408,0.907c0.141,0.447,0.754,0.537,1.223,0.564l1.031-0.003c0.062-0.01,0.607-0.1,0.797-0.55
		c0.111-0.272,0.061-0.588-0.156-0.939c0.089-0.151,0.205-0.39,0.371-0.763c0.031-0.062,0.726-1.569,0.424-5.097
		c0.021,0.004,0.039,0.013,0.06,0.017c0.9,0.185,2.896,1.357,3.336,2.854c0.063,0.222,0.154,0.493,0.256,0.791
		c0.269,0.8,0.627,1.875,0.625,2.459c-0.319,0.254-1.149,1.008-1.099,1.891c-0.008,0.042-0.007,0.085,0.006,0.126
		c0.07,0.256,0.305,0.296,1.146,0.296c0.018,0,0.033,0,0.05,0c0.146-0.016,0.882-0.109,1.127-0.569
		c0.08-0.147,0.142-0.391-0.028-0.716c-0.037-0.064-0.06-0.155-0.051-0.178c0,0,0.018-0.018,0.076-0.031
		c0.073-0.019,0.139-0.062,0.182-0.125c0.021-0.032,0.502-0.771,0.055-1.465c0.023-0.793,0.056-4.561-1.514-5.265l-0.072-0.031
		c-0.711-0.319-1.684-0.753-1.477-2.137c0.231-0.362,0.627-0.941,0.797-1.104c0.215-0.205,0.486-0.391,0.775-0.585
		c0.971-0.653,2.149-1.452,1.881-3.569c0.178,0.347,0.357,0.974,0.424,2.104c0.008,0.057,0.81,5.688,5.245,5.688
		c0.021,0,0.043,0,0.063,0c0.122-0.001,0.231-0.078,0.276-0.192C34.411,24.361,34.38,24.231,34.291,24.148z M3.273,21.566
		c-0.114,0.012-0.212,0.089-0.251,0.197c-0.748,2.107,1.455,4.007,1.549,4.086c0.068,0.059,0.158,0.08,0.247,0.065
		c0.089-0.016,0.165-0.069,0.209-0.147c0.045-0.079,0.114-0.177,0.19-0.182c0.156-0.006,0.388,0.208,0.479,0.32
		c0.324,0.672,0.376,0.994,0.378,1.126c-0.368-0.068-0.967-0.486-1.315-0.801c-0.039-0.035-0.088-0.061-0.14-0.07
		c-1.784-0.375-2.79-3.723-2.804-3.765c-0.137-0.422-0.128-0.759,0.025-1.029c0.324-0.567,1.244-0.775,1.854-0.914
		c0.116-0.025,0.224-0.05,0.313-0.073c0.996-0.262,1.586-0.612,1.836-1.057l1.023,1.351C6.275,21.085,4.494,21.434,3.273,21.566z
		 M21.258,29.067c-0.238,0.537-0.344,0.717-0.381,0.771c-0.002,0.002-0.007,0.005-0.01,0.007c-0.119,0.104-0.141,0.282-0.046,0.408
		c0.174,0.231,0.253,0.434,0.211,0.536c-0.044,0.108-0.243,0.174-0.282,0.185h-0.974c-0.572-0.035-0.665-0.141-0.667-0.137
		c0.006-0.055,0.11-0.188,0.188-0.25c1.759-1.138,1.552-2.636,1.545-2.67c-0.025-0.417-0.074-1.298-0.125-2.221
		c-0.043-0.784-0.086-1.583-0.119-2.17c0.326,0.205,0.665,0.377,1.015,0.509C21.953,27.554,21.27,29.046,21.258,29.067z
		 M29.378,18.926c-0.084-1.492-0.392-2.458-0.908-2.873c-0.297-0.238-0.558-0.208-0.608-0.2c-0.083,0.014-0.154,0.062-0.202,0.132
		c-0.046,0.071-0.06,0.157-0.036,0.239c0.601,2.323-0.41,3.005-1.479,3.727c-0.312,0.21-0.604,0.408-0.854,0.647
		c-0.289,0.274-0.859,1.167-0.924,1.269c-0.021,0.034-0.035,0.071-0.043,0.11c-0.318,1.887,1.068,2.509,1.813,2.843l0.07,0.032
		c0.971,0.435,1.226,3.172,1.155,4.794c-0.003,0.07,0.021,0.141,0.062,0.196c0.224,0.286,0.105,0.622,0.033,0.774
		c-0.207,0.084-0.308,0.224-0.354,0.333c-0.137,0.32,0.045,0.655,0.074,0.706c0.035,0.064,0.043,0.112,0.026,0.142
		c-0.062,0.117-0.396,0.23-0.629,0.257c-0.274,0-0.452-0.007-0.563-0.016c0.08-0.558,0.697-1.115,0.955-1.3
		c0.069-0.049,0.115-0.126,0.125-0.21c0.078-0.678-0.323-1.876-0.646-2.838c-0.098-0.29-0.188-0.556-0.249-0.771
		c-0.514-1.744-2.738-3.058-3.79-3.271c-2.039-0.418-3.946-2.71-4.366-4.104c-0.048-0.158-0.217-0.25-0.373-0.201
		c-0.158,0.047-0.248,0.215-0.201,0.374c0.146,0.482,0.44,1.054,0.848,1.623c-5.117,1.801-7.395-0.25-7.416-0.271
		c-0.087-0.081-0.216-0.104-0.325-0.058c-0.108,0.049-0.181,0.155-0.181,0.274c0,1.341-1.254,2.31-1.268,2.318
		c-0.082,0.062-0.127,0.165-0.117,0.269c0.349,3.548-0.082,4.857-0.08,4.857c-0.239,0.537-0.346,0.717-0.381,0.771
		c-0.004,0.002-0.006,0.005-0.01,0.007c-0.121,0.104-0.141,0.281-0.046,0.408c0.175,0.231,0.253,0.434,0.211,0.536
		c-0.044,0.108-0.243,0.174-0.284,0.185H7.445C6.875,30.603,6.78,30.5,6.778,30.501c0.006-0.055,0.109-0.188,0.186-0.25
		c1.76-1.138,1.553-2.636,1.545-2.671c-0.024-0.417-0.073-1.297-0.123-2.22c-0.051-0.923-0.104-1.889-0.139-2.476
		c-0.103-1.74-0.707-2.334-0.736-2.354l-1.68-2.226c-0.002-0.002-0.004-0.003-0.006-0.006l-0.08-0.106
		c-1.242-1.792-0.33-2.817-0.289-2.862c0.652-0.709,0.603-1.988,0.601-2.042C6.055,13.25,6.044,13.21,6.03,13.175
		c-1.002-2.151-0.963-4.85-0.963-4.876C5.07,8.148,4.961,8.019,4.811,7.996C4.652,7.974,4.516,8.068,4.479,8.214
		C4.39,8.536,4.255,8.582,3.99,8.674c-0.544,0.187-1.048,0.467-1.24,1.82c-0.08,0.555-0.26,0.9-0.535,1.027
		c-0.377,0.175-0.916-0.081-1.096-0.196c-0.732-0.458-0.566-1.071-0.25-1.886c0.072-0.188,0.139-0.358,0.172-0.502
		c0.5-2.085,1.047-4.597,1.047-4.597C2.096,4.303,2.096,4.265,2.09,4.229L1.83,2.623l1.573,1.016
		c0.063,0.042,0.144,0.058,0.218,0.044c6.274-1.139,8.488,6.107,8.579,6.416c0.017,0.051,0.044,0.098,0.083,0.134
		c3.518,3.303,8.66,2.258,8.868,2.215c4.04-0.737,6.145,1.866,6.229,1.977c0.054,0.067,0.134,0.109,0.22,0.114
		c4.056,0.242,4.302,4.989,4.312,5.173c-0.038,2.04,0.865,3.538,1.466,4.302C30.035,23.507,29.402,19.104,29.378,18.926z"/>
</g>
</svg>