<?xml version="1.0" encoding="iso-8859-1"?>
<!-- Uploaded to: SVG Repo, www.svgrepo.com, Generator: SVG Repo Mixer Tools -->
<svg fill="#000000" height="800px" width="800px" version="1.1" id="Layer_1" xmlns="http://www.w3.org/2000/svg" xmlns:xlink="http://www.w3.org/1999/xlink" 
	 viewBox="0 0 512 512" xml:space="preserve">
<g>
	<g>
		<g>
			<circle cx="93.121" cy="234.834" r="9.251"/>
			<path d="M164.031,243.698c-3.754,2.386-4.862,7.364-2.475,11.118c6.041,9.502,9.235,20.508,9.235,31.827
				c-0.001,11.32-3.194,22.325-9.235,31.826c-2.386,3.754-1.278,8.732,2.475,11.118c1.34,0.853,2.835,1.259,4.314,1.259
				c2.663,0,5.27-1.32,6.805-3.734c7.685-12.088,11.748-26.081,11.749-40.467c0-14.385-4.063-28.379-11.749-40.469
				C172.763,242.42,167.786,241.31,164.031,243.698z"/>
			<path d="M140.121,268.396c-2.387-3.753-7.365-4.862-11.119-2.474c-3.753,2.387-4.861,7.365-2.474,11.119
				c1.821,2.864,2.784,6.184,2.784,9.602s-0.962,6.739-2.784,9.601c-2.387,3.753-1.28,8.731,2.473,11.118
				c1.34,0.853,2.836,1.26,4.315,1.26c2.662,0,5.269-1.32,6.803-3.733c3.468-5.451,5.301-11.761,5.301-18.247
				C145.421,280.157,143.589,273.847,140.121,268.396z"/>
			<path d="M509.642,199.496c-1.511-1.511-3.559-2.359-5.696-2.359h-62.633v-62.635c0-4.448-3.605-8.054-8.054-8.054
				c-0.002,0,0,0-0.002,0c-33.766,0-61.243,27.475-61.245,61.244v9.444H257.784v-53.161c0-4.448-3.606-8.054-8.054-8.054
				c-40.072,0-75.652,24.367-90.303,61.215H27.798C12.47,197.138,0,209.61,0,224.939c0,1.063,0.062,2.14,0.184,3.202
				c0.01,0.087,0.021,0.174,0.034,0.26c5.466,37,24.092,70.968,52.45,95.648c16.378,14.255,35.397,24.84,55.789,31.297l-0.877,0.877
				c-1.511,1.51-2.359,3.559-2.359,5.695c0,2.136,0.848,4.185,2.359,5.696c11.942,11.941,27.622,17.91,43.308,17.909
				c15.681-0.001,31.369-5.971,43.307-17.908l4.911-4.911h7.611l4.911,4.91c11.567,11.568,26.948,17.938,43.307,17.938
				s31.741-6.37,43.308-17.938c1.511-1.511,2.359-3.559,2.359-5.696c0-0.125-0.013-0.248-0.019-0.373
				c26.396-3.169,51.45-12.909,73.16-28.596c23.555-17.019,41.793-39.929,53.008-66.513h24.006
				c33.769,0,61.243-27.475,61.243-61.245C512,203.055,511.152,201.007,509.642,199.496z M125.174,361.411l1.476-1.476
				c9.625,1.826,19.458,2.771,29.381,2.771h18.581C159.457,372.07,139.923,371.643,125.174,361.411z M254.933,369.445
				c-12.057,0-23.391-4.695-31.916-13.22l-18.478-18.477c-7.23-7.23-7.23-18.993,0-26.224c3.502-3.502,8.159-5.431,13.11-5.431
				c4.953,0,9.608,1.929,13.11,5.431l49.892,49.891C273.155,366.635,264.258,369.445,254.933,369.445z M450.757,250.329h-29.451
				c-3.342,0-6.336,2.064-7.527,5.187c-20.113,52.799-69.133,88.223-125.352,90.894l-46.276-46.276
				c-6.544-6.544-15.246-10.15-24.501-10.15s-17.957,3.604-24.501,10.148c-12.692,12.694-13.457,32.865-2.3,46.463h-34.815
				c-34.127,0-67.079-12.323-92.787-34.698c-25.424-22.127-42.136-52.563-47.069-85.709c-0.046-0.416-0.068-0.837-0.068-1.25
				c0-6.447,5.244-11.692,11.69-11.692h137.267c3.476,0,6.559-2.231,7.649-5.531c10.137-30.731,37.271-52.158,68.96-55.288v52.765
				c0,4.448,3.606,8.054,8.054,8.054h130.335c4.449,0,8.054-3.606,8.054-8.054v-17.498c0.002-22.141,16.025-40.609,37.084-44.417
				v61.916c0,2.136,0.848,4.185,2.358,5.695c1.511,1.511,3.559,2.359,5.696,2.359h61.913
				C491.364,234.306,472.897,250.329,450.757,250.329z"/>
			<path d="M157.656,257.273c-2.387-3.754-7.365-4.862-11.119-2.475c-3.753,2.387-4.862,7.365-2.475,11.119
				c3.934,6.186,6.013,13.353,6.013,20.727s-2.079,14.541-6.013,20.727c-2.386,3.754-1.278,8.732,2.475,11.119
				c1.34,0.852,2.836,1.259,4.314,1.259c2.663,0,5.27-1.32,6.804-3.734c5.579-8.774,8.527-18.93,8.527-29.371
				C166.183,276.203,163.234,266.047,157.656,257.273z"/>
		</g>
	</g>
</g>
</svg>